{"title":"Ab Ke Baras ( 2002 ) HDRip 720p x264 AAC [ TaRa ].mkv","uid":15993049,"size":1298978119,"categoryP":"video","categoryS":"hd___movies","magnet":"?xt=urn:btih:2626a326c0b3db5292956a92b0e3a56c8a9271b4&amp;dn=Ab+Ke+Baras+%28+2002+%29+HDRip+720p+x264+AAC+%5B+TaRa+%5D.mkv&amp;tr=udp%3A%2F%2Ftracker.leechers-paradise.org%3A6969&amp;tr=udp%3A%2F%2Fzer0day.ch%3A1337&amp;tr=udp%3A%2F%2Fopen.demonii.com%3A1337&amp;tr=udp%3A%2F%2Ftracker.coppersurfer.tk%3A6969&amp;tr=udp%3A%2F%2Fexodus.desync.com%3A6969","seeders":1,"leechers":0,"uploader":"MdTaRa","files":1,"time":1476039322,"description":"===================================================================\r\nGeneral\r\nComplete name               : K:HD MOVIEAb Ke Baras ( 2002 ) HDRip 720p x264 AAC [ TaRa ].mkv\r\nFormat                      : Matroska\r\nFormat version              : Version 4 / Version 2\r\nFile size                   : 1.21 GiB\r\nDuration                    : 2h 35mn\r\nOverall bit rate            : 1 114 Kbps\r\n======================================================================\r\nVideo\r\nID                          : 1\r\nFormat                      : AVC\r\nFormat/Info                 : Advanced Video Codec\r\nFormat profile              :   \r\nFormat settings, CABAC      : Yes\r\nFormat settings, ReFrames   : 4 frames\r\nCodec ID                    : V_MPEG4/ISO/AVC\r\nDuration                    : 2h 35mn\r\nBit rate                    : 1 020 Kbps\r\nWidth                       : 1 280 pixels\r\nHeight                      : 546 pixels\r\nDisplay aspect ratio        : 2.35:1\r\nFrame rate mode             : Constant\r\nFrame rate                  : 25.000 fps\r\nColor space                 : YUV\r\nChroma subsampling          : 4:2:0\r\nBit depth                   : 8 bits\r\nScan type                   : Progressive\r\nBits/(Pixel*Frame)          : 0.058\r\nStream size                 : 1.10 GiB (91%)\r\nTitle                       : .....::::: TaRa :::::.....\r\nLanguage                    : Hindi\r\nDefault                     : Yes\r\nForced                      : No\r\nColor range                 : Limited\r\nColor primaries             : BT.709\r\nTransfer characteristics    : BT.709\r\nMatrix coefficients         : BT.709\r\n=======================================================================\r\nAudio\r\nID                          : 2\r\nFormat                      : AAC\r\nFormat/Info                 : Advanced Audio Codec\r\nFormat profile              : LC\r\nCodec ID                    : A_AAC\r\nDuration                    : 2h 35mn\r\nBit rate                    : 96.0 Kbps\r\nChannel(s)                  : 2 channels\r\nChannel positions           : Front: L R\r\nSampling rate               : 48.0 KHz\r\nFrame rate                  : 46.875 fps (1024 spf)\r\nCompression mode            : Lossy\r\nDelay relative to video     : -71ms\r\nStream size                 : 107 MiB (9%)\r\nTitle                       : .....::::: TaRa :::::.....\r\nLanguage                    : Hindi\r\nDefault                     : Yes\r\nForced                      : No\r\n=================================================================== \nhttps://extraimago.com/image/wZDq \nhttps://extraimago.com/image/wZDy \nhttps://extraimago.com/image/wZDL \nhttps://extraimago.com/image/wZDQ \nhttps://extraimago.com/image/wZDR \nhttps://extraimago.com/image/wZDm \nhttps://extraimago.com/image/wZDl \nhttps://extraimago.com/image/wZDI \nhttps://extraimago.com/image/wZDd \nhttps://extraimago.com/image/wZDh \nhttps://extraimago.com/image/wZDb \nhttps://extraimago.com/image/wZD3 \nhttps://extraimago.com/image/wZD9 \nhttps://extraimago.com/image/wZDM","torrent":{"xt":"urn:btih:2626a326c0b3db5292956a92b0e3a56c8a9271b4","amp;dn":"Ab+Ke+Baras+%28+2002+%29+HDRip+720p+x264+AAC+%5B+TaRa+%5D.mkv","amp;tr":["udp%3A%2F%2Ftracker.leechers-paradise.org%3A6969","udp%3A%2F%2Fzer0day.ch%3A1337","udp%3A%2F%2Fopen.demonii.com%3A1337","udp%3A%2F%2Ftracker.coppersurfer.tk%3A6969","udp%3A%2F%2Fexodus.desync.com%3A6969"],"infoHash":"2626a326c0b3db5292956a92b0e3a56c8a9271b4","infoHashBuffer":{"type":"Buffer","data":[38,38,163,38,192,179,219,82,146,149,106,146,176,227,165,108,138,146,113,180]},"announce":[],"urlList":[]}}